<?xml version="1.0" standalone="no"?>
<!DOCTYPE svg PUBLIC "-//W3C//DTD SVG 20010904//EN"
 "http://www.w3.org/TR/2001/REC-SVG-20010904/DTD/svg10.dtd">
<svg version="1.0" xmlns="http://www.w3.org/2000/svg"
 width="428.000000pt" height="428.000000pt" viewBox="0 0 428.000000 428.000000"
 preserveAspectRatio="xMidYMid meet">
<metadata>
Created by potrace 1.14, written by Peter Selinger 2001-2017
</metadata>
<g transform="translate(0.000000,428.000000) scale(0.100000,-0.100000)"
fill="#000000" stroke="none">
<path d="M1837 4200 c-65 -25 -113 -64 -148 -118 -15 -24 -30 -49 -31 -54 -2
-5 -30 6 -63 24 -55 30 -68 33 -145 33 -128 0 -169 -24 -353 -204 -81 -79
-164 -169 -183 -199 -44 -65 -68 -150 -61 -215 l4 -48 -31 8 c-65 17 -198 9
-259 -16 -106 -42 -211 -169 -225 -273 -4 -33 -10 -40 -58 -63 -105 -51 -179
-154 -204 -280 -8 -43 -10 -232 -7 -675 4 -691 0 -654 83 -829 l44 -94 0 -558
0 -559 725 0 725 0 0 23 c0 22 -125 1028 -134 1077 -4 21 28 59 210 254 162
174 222 244 244 290 72 145 41 321 -77 440 -47 48 -150 98 -215 104 -27 3 -51
10 -54 16 -2 6 -5 178 -6 382 l-3 372 52 11 c98 23 175 91 217 194 l22 54 38
-33 c112 -97 290 -96 403 1 l40 34 11 -37 c30 -100 126 -190 226 -213 l51 -11
-3 -372 c-1 -204 -4 -376 -6 -382 -3 -6 -27 -13 -54 -16 -65 -6 -168 -56 -215
-103 -117 -120 -149 -296 -78 -440 23 -47 82 -116 245 -291 182 -195 214 -233
210 -254 -9 -49 -134 -1055 -134 -1077 l0 -23 725 0 725 0 0 559 0 558 44 94
c83 175 79 138 83 829 3 443 1 632 -7 675 -25 125 -99 228 -202 279 -48 24
-53 30 -65 78 -32 125 -118 219 -240 264 -63 23 -83 26 -150 21 -43 -3 -87 -8
-98 -12 -19 -6 -20 -1 -20 72 0 119 -22 154 -223 359 -204 208 -239 229 -372
229 -77 0 -91 -3 -144 -32 -33 -18 -60 -32 -61 -30 -1 1 -13 23 -28 49 -34 59
-87 103 -155 128 -48 18 -77 20 -310 20 -227 -1 -263 -3 -305 -20z"/>
</g>
</svg>
